%TF.GenerationSoftware,KiCad,Pcbnew,8.0.5*%
%TF.CreationDate,2024-12-25T22:13:30-08:00*%
%TF.ProjectId,ToastyReflowOvenPCB,546f6173-7479-4526-9566-6c6f774f7665,rev?*%
%TF.SameCoordinates,Original*%
%TF.FileFunction,Soldermask,Bot*%
%TF.FilePolarity,Negative*%
%FSLAX46Y46*%
G04 Gerber Fmt 4.6, Leading zero omitted, Abs format (unit mm)*
G04 Created by KiCad (PCBNEW 8.0.5) date 2024-12-25 22:13:30*
%MOMM*%
%LPD*%
G01*
G04 APERTURE LIST*
%ADD10C,1.600000*%
%ADD11O,1.600000X1.600000*%
%ADD12C,3.200000*%
%ADD13R,2.000000X2.000000*%
%ADD14C,2.000000*%
%ADD15R,2.500000X3.000000*%
%ADD16C,2.340000*%
%ADD17R,3.000000X3.000000*%
%ADD18C,3.000000*%
%ADD19R,1.700000X1.700000*%
%ADD20O,1.700000X1.700000*%
%ADD21R,1.800000X1.800000*%
%ADD22C,1.800000*%
%ADD23C,1.200000*%
%ADD24R,1.600000X1.600000*%
G04 APERTURE END LIST*
D10*
%TO.C,R10*%
X154020000Y-101720000D03*
D11*
X146400000Y-101720000D03*
%TD*%
D12*
%TO.C,H4*%
X91690000Y-115770800D03*
%TD*%
%TO.C,H3*%
X178939000Y-115770800D03*
%TD*%
%TO.C,H2*%
X178939000Y-50950000D03*
%TD*%
%TO.C,H1*%
X91690000Y-50950000D03*
%TD*%
D10*
%TO.C,R8*%
X118750000Y-110870000D03*
D11*
X111130000Y-110870000D03*
%TD*%
D10*
%TO.C,R7*%
X104200000Y-110740000D03*
D11*
X96580000Y-110740000D03*
%TD*%
D13*
%TO.C,SW1*%
X103740000Y-122610000D03*
D14*
X108740000Y-122610000D03*
X106240000Y-122610000D03*
D15*
X100640000Y-130110000D03*
X111840000Y-130110000D03*
D14*
X103740000Y-137110000D03*
X108740000Y-137110000D03*
%TD*%
D16*
%TO.C,RV1*%
X131210000Y-100510000D03*
X133710000Y-110510000D03*
X136210000Y-100510000D03*
%TD*%
D10*
%TO.C,R9*%
X97260000Y-137590000D03*
D11*
X97260000Y-129970000D03*
%TD*%
D10*
%TO.C,R6*%
X146700000Y-112060000D03*
D11*
X146700000Y-104440000D03*
%TD*%
D10*
%TO.C,R5*%
X117900000Y-122980000D03*
D11*
X117900000Y-130600000D03*
%TD*%
D10*
%TO.C,R4*%
X167520000Y-135750000D03*
D11*
X167520000Y-128130000D03*
%TD*%
D10*
%TO.C,R3*%
X144970000Y-135930000D03*
D11*
X144970000Y-128310000D03*
%TD*%
D10*
%TO.C,R2*%
X155960000Y-135930000D03*
D11*
X155960000Y-128310000D03*
%TD*%
D10*
%TO.C,R1*%
X134340000Y-136000000D03*
D11*
X134340000Y-128380000D03*
%TD*%
D17*
%TO.C,J4*%
X179540000Y-98200000D03*
D18*
X179540000Y-103280000D03*
%TD*%
D19*
%TO.C,J3*%
X119020000Y-115770800D03*
D20*
X121560000Y-115770800D03*
X124100000Y-115770800D03*
X126640000Y-115770800D03*
X129180000Y-115770800D03*
X131720000Y-115770800D03*
X134260000Y-115770800D03*
X136800000Y-115770800D03*
X139340000Y-115770800D03*
X141880000Y-115770800D03*
X144420000Y-115770800D03*
X146960000Y-115770800D03*
X149500000Y-115770800D03*
X152040000Y-115770800D03*
X154580000Y-115770800D03*
X157120000Y-115770800D03*
X159660000Y-115770800D03*
X162200000Y-115770800D03*
X164740000Y-115770800D03*
X167280000Y-115770800D03*
%TD*%
D17*
%TO.C,J2*%
X179600000Y-81830000D03*
D18*
X179600000Y-86910000D03*
X179600000Y-91990000D03*
%TD*%
D19*
%TO.C,J1*%
X159220000Y-60650000D03*
D20*
X159220000Y-63190000D03*
X159220000Y-65730000D03*
X159220000Y-68270000D03*
X159220000Y-70810000D03*
X159220000Y-73350000D03*
%TD*%
D21*
%TO.C,D4*%
X130395000Y-123640000D03*
D22*
X132935000Y-123640000D03*
%TD*%
D21*
%TO.C,D3*%
X153155000Y-123830000D03*
D22*
X155695000Y-123830000D03*
%TD*%
D21*
%TO.C,D2*%
X164425000Y-123610000D03*
D22*
X166965000Y-123610000D03*
%TD*%
D21*
%TO.C,D1*%
X142075000Y-123720000D03*
D22*
X144615000Y-123720000D03*
%TD*%
D23*
%TO.C,C2*%
X101690000Y-117100000D03*
X103690000Y-117100000D03*
%TD*%
%TO.C,C1*%
X108800000Y-117100000D03*
X110800000Y-117100000D03*
%TD*%
D13*
%TO.C,BZ1*%
X122060000Y-130110000D03*
D14*
X129660000Y-130110000D03*
%TD*%
D24*
%TO.C,A1*%
X124780000Y-77980000D03*
D11*
X122240000Y-77980000D03*
X119700000Y-77980000D03*
X117160000Y-77980000D03*
X114620000Y-77980000D03*
X112080000Y-77980000D03*
X109540000Y-77980000D03*
X107000000Y-77980000D03*
X104460000Y-77980000D03*
X101920000Y-77980000D03*
X99380000Y-77980000D03*
X96840000Y-77980000D03*
X94300000Y-77980000D03*
X91760000Y-77980000D03*
X89220000Y-77980000D03*
X89220000Y-93220000D03*
X91760000Y-93220000D03*
X94300000Y-93220000D03*
X96840000Y-93220000D03*
X99380000Y-93220000D03*
X101920000Y-93220000D03*
X104460000Y-93220000D03*
X107000000Y-93220000D03*
X109540000Y-93220000D03*
X112080000Y-93220000D03*
X114620000Y-93220000D03*
X117160000Y-93220000D03*
X119700000Y-93220000D03*
X122240000Y-93220000D03*
X124780000Y-93220000D03*
%TD*%
M02*
