M48
; DRILL file {KiCad 8.0.5} date 2024-12-25T22:13:44-0800
; FORMAT={-:-/ absolute / metric / decimal}
; #@! TF.CreationDate,2024-12-25T22:13:44-08:00
; #@! TF.GenerationSoftware,Kicad,Pcbnew,8.0.5
; #@! TF.FileFunction,Plated,1,2,PTH
FMAT,2
METRIC
; #@! TA.AperFunction,Plated,PTH,ViaDrill
T1C0.400
; #@! TA.AperFunction,Plated,PTH,ComponentDrill
T2C0.600
; #@! TA.AperFunction,Plated,PTH,ComponentDrill
T3C0.800
; #@! TA.AperFunction,Plated,PTH,ComponentDrill
T4C0.900
; #@! TA.AperFunction,Plated,PTH,ComponentDrill
T5C1.000
; #@! TA.AperFunction,Plated,PTH,ComponentDrill
T6C1.300
; #@! TA.AperFunction,Plated,PTH,ComponentDrill
T7C1.520
; #@! TA.AperFunction,Plated,PTH,ComponentDrill
T8C2.000
%
G90
G05
T1
X94.45Y-80.39
X95.55Y-106.22
X99.28Y-107.71
X100.71Y-87.95
X100.78Y-80.93
X114.22Y-123.74
X120.81Y-103.91
X121.17Y-105.77
X121.86Y-103.04
X121.91Y-117.81
X129.46Y-71.99
X131.74Y-113.22
X132.91Y-68.74
X132.91Y-76.37
X133.98Y-80.5
X163.63Y-105.89
X163.7Y-104.88
X165.78Y-104.88
X165.85Y-105.93
T2
X101.69Y-117.1
X103.69Y-117.1
X108.8Y-117.1
X110.8Y-117.1
T3
X96.58Y-110.74
X97.26Y-129.97
X97.26Y-137.59
X104.2Y-110.74
X111.13Y-110.87
X117.9Y-122.98
X117.9Y-130.6
X118.75Y-110.87
X134.34Y-128.38
X134.34Y-136.0
X144.97Y-128.31
X144.97Y-135.93
X146.4Y-101.72
X146.7Y-104.44
X146.7Y-112.06
X154.02Y-101.72
X155.96Y-128.31
X155.96Y-135.93
X167.52Y-128.13
X167.52Y-135.75
T4
X130.395Y-123.64
X132.935Y-123.64
X142.075Y-123.72
X144.615Y-123.72
X153.155Y-123.83
X155.695Y-123.83
X164.425Y-123.61
X166.965Y-123.61
T5
X89.22Y-77.98
X89.22Y-93.22
X91.76Y-77.98
X91.76Y-93.22
X94.3Y-77.98
X94.3Y-93.22
X96.84Y-77.98
X96.84Y-93.22
X99.38Y-77.98
X99.38Y-93.22
X101.92Y-77.98
X101.92Y-93.22
X103.74Y-122.61
X103.74Y-137.11
X104.46Y-77.98
X104.46Y-93.22
X106.24Y-122.61
X107.0Y-77.98
X107.0Y-93.22
X108.74Y-122.61
X108.74Y-137.11
X109.54Y-77.98
X109.54Y-93.22
X112.08Y-77.98
X112.08Y-93.22
X114.62Y-77.98
X114.62Y-93.22
X117.16Y-77.98
X117.16Y-93.22
X119.02Y-115.771
X119.7Y-77.98
X119.7Y-93.22
X121.56Y-115.771
X122.06Y-130.11
X122.24Y-77.98
X122.24Y-93.22
X124.1Y-115.771
X124.78Y-77.98
X124.78Y-93.22
X126.64Y-115.771
X129.18Y-115.771
X129.66Y-130.11
X131.72Y-115.771
X134.26Y-115.771
X136.8Y-115.771
X139.34Y-115.771
X141.88Y-115.771
X144.42Y-115.771
X146.96Y-115.771
X149.5Y-115.771
X152.04Y-115.771
X154.58Y-115.771
X157.12Y-115.771
X159.22Y-60.65
X159.22Y-63.19
X159.22Y-65.73
X159.22Y-68.27
X159.22Y-70.81
X159.22Y-73.35
X159.66Y-115.771
X162.2Y-115.771
X164.74Y-115.771
X167.28Y-115.771
T6
X131.21Y-100.51
X133.71Y-110.51
X136.21Y-100.51
T7
X179.54Y-98.2
X179.54Y-103.28
X179.6Y-81.83
X179.6Y-86.91
X179.6Y-91.99
T8
G00X100.64Y-129.86
M15
G01X100.64Y-130.36
M16
G05
G00X111.84Y-129.86
M15
G01X111.84Y-130.36
M16
G05
M30
